# xmcd
# Track frame offsets:
# 182
# 23272
# 42140
# 55497
# 83680
# 95727
# 110825
# 123392
# 137682
# 157880
# 179272
# 195662
# 205927
# 221922
# 246535
# 265147
# 281747
# 304572
#
# Disc length: 4250 seconds
# Revision: 0
# Processed by: cddbd v1.5.1PL2 Copyright (c) Steve Scherf et al.
# Submitted via: VisiTrax 2.9.10.228 - For more info visit www.synapsa.com
#
DISCID=05109812
DTITLE=SCACCO MATTO - RICORDI MUSICALI
DYEAR=1900
DGENRE=
TTITLE0=SERIE AMERICANA: The Yellow Roses, Oh Susanna, Anchors Aweigh, Inno US
TTITLE0=A, America, Glory Alleluja
TTITLE1=LOVE CANARIA
TTITLE2=GONNA FLY NOW
TTITLE3=SERIE ANNI 60: La Casa del Sole, You Are My Destiny, Pregherò, Et Main
TTITLE3=tenant, Speedy Gonzales
TTITLE4=SULLE ONDE
TTITLE5=MAMBO N. 5
TTITLE6=ANGELITA
TTITLE7=ANANAS
TTITLE8=RONDO 21
TTITLE9=IN QUESTO MONDO DI LADRI
TTITLE10=LA PIOVRA
TTITLE11=DON' T BE THAT WAY
TTITLE12=SE NON FOSSE CHE
TTITLE13=ORIENT EXPRESS
TTITLE14=MELODIA ITALIANA
TTITLE15=OPERA'S BOOGIE
TTITLE16=NIGHT CLUB
TTITLE17=NEW YORK, NEW YORK
EXTD=
EXTT0=
EXTT1=
EXTT2=
EXTT3=
EXTT4=
EXTT5=
EXTT6=
EXTT7=
EXTT8=
EXTT9=
EXTT10=
EXTT11=
EXTT12=
EXTT13=
EXTT14=
EXTT15=
EXTT16=
EXTT17=
PLAYORDER=
